<svg width="9" height="9" viewBox="0 0 9 9" fill="none" xmlns="http://www.w3.org/2000/svg">
<path d="M0.550737 3.26044C0.742057 3.45916 0.973112 3.60911 1.22656 3.69903C1.21702 3.74381 1.20461 3.78858 1.19602 3.83336C1.16861 3.96363 1.15074 4.09598 1.14256 4.22921C1.13597 4.5522 1.23749 4.86714 1.42893 5.11759C1.62067 5.37025 1.89211 5.5399 2.19257 5.59485C2.3407 5.61624 2.48986 5.62847 2.6393 5.63148C2.6393 5.76276 2.65076 5.88385 2.64885 6.01716L2.6584 6.42421C2.56294 6.39877 2.46748 6.37841 2.37203 6.36213L1.84607 6.27767L0.776967 6.13012C0.735388 6.17284 0.702844 6.22453 0.681511 6.28174C0.650573 6.33323 0.631594 6.39183 0.626147 6.4527C0.856918 6.68324 1.13465 6.85365 1.43755 6.95058C1.74046 7.04751 2.06031 7.06831 2.37203 7.01137C2.46748 6.99407 2.56867 6.9727 2.66699 6.94624L2.67558 7.24339C2.68226 7.37873 2.67558 7.50695 2.7023 7.6891C2.70991 7.73273 2.71979 7.77588 2.7319 7.81834C2.60195 7.85354 2.47438 7.89808 2.35007 7.95165L1.93102 8.14703C1.66089 8.27118 1.39266 8.4055 1.07192 8.53983C1.05856 8.60015 1.05565 8.66257 1.06333 8.72402C1.05775 8.78456 1.06459 8.84567 1.08338 8.90312C1.45744 9.03254 1.86324 9.00933 2.22216 8.83799C2.39746 8.75438 2.55744 8.63827 2.69467 8.49505C2.76674 8.4154 2.83493 8.33185 2.89894 8.24472C2.96675 8.36231 3.04893 8.46976 3.14331 8.56425C3.37338 8.78608 3.66707 8.91841 3.97664 8.93975C4.27541 8.93975 4.50069 8.91329 4.76605 8.90006C4.83001 8.90006 4.8806 8.81967 4.8806 8.72503C4.8806 8.6304 4.83001 8.55306 4.76605 8.54899H4.74792L4.36609 8.52456C4.24605 8.5209 4.12625 8.51071 4.00718 8.49403C3.80384 8.45351 3.61885 8.3422 3.48122 8.17756C3.34959 8.01773 3.27137 7.81589 3.25881 7.60362C3.25881 7.51509 3.26358 7.35939 3.2674 7.2271L3.27981 6.82006L3.29986 6.00597C3.31227 5.73935 3.29986 5.42694 3.33899 5.27532C3.38492 5.09009 3.4873 4.9264 3.63003 4.80998C3.77276 4.69355 3.94774 4.63101 4.12746 4.63219H4.8911C5.07096 4.63334 5.24543 4.69772 5.38747 4.81536C5.53086 4.93536 5.63318 5.10237 5.67861 5.29058C5.7187 5.4473 5.70534 5.77191 5.7187 6.03344L5.74447 6.84753L5.75975 7.25458C5.76452 7.39196 5.77406 7.53544 5.76834 7.63008C5.75124 7.85466 5.66429 8.06673 5.52128 8.23264C5.37827 8.39856 5.18739 8.50882 4.97892 8.54593C4.92642 8.55509 4.88346 8.6365 4.88346 8.73216C4.88135 8.75268 4.88305 8.77344 4.88849 8.79326C4.89392 8.81308 4.90297 8.83155 4.91512 8.84763C4.92728 8.8637 4.94229 8.87706 4.9593 8.88693C4.97631 8.89681 4.99498 8.903 5.01424 8.90515H5.03428C5.33572 8.88355 5.62139 8.75369 5.8447 8.53678C5.93438 8.44643 6.01238 8.34377 6.07666 8.23149C6.14763 8.32934 6.2238 8.42277 6.3048 8.51133C6.44324 8.65533 6.60492 8.7715 6.78207 8.85427C7.14144 9.02422 7.5471 9.04633 7.92086 8.91635C7.93991 8.85437 7.94514 8.78852 7.93613 8.72402C7.94066 8.66296 7.93451 8.60154 7.91799 8.54288C7.60013 8.40856 7.33285 8.27423 7.0589 8.15008L6.63889 7.95368C6.50787 7.89633 6.37327 7.84872 6.23607 7.81121C6.24893 7.76539 6.25944 7.71885 6.26757 7.6718C6.28857 7.49372 6.28666 7.36652 6.29334 7.23219L6.30384 6.94217C6.41171 6.97066 6.51957 6.9961 6.62648 7.01544C6.83294 7.05215 7.04343 7.05523 7.25076 7.0246C7.67129 6.96283 8.06332 6.76294 8.37236 6.4527C8.36721 6.39192 8.34856 6.33332 8.31795 6.28174C8.29711 6.22426 8.2645 6.17246 8.2225 6.13012L7.14862 6.27767L6.62362 6.36213C6.52244 6.38045 6.42221 6.40284 6.32102 6.42929L6.33439 6.00393L6.34393 5.63148C6.50105 5.62908 6.65789 5.61651 6.81357 5.59383C7.11235 5.53661 7.38159 5.36599 7.57149 5.11352C7.76292 4.86267 7.86442 4.54742 7.85786 4.22412C7.85559 4.1537 7.84793 4.08359 7.83495 4.01449C7.82445 3.95344 7.81395 3.89136 7.80249 3.82929C7.79486 3.78655 7.7834 3.74279 7.77386 3.70005C8.03045 3.60932 8.26399 3.45681 8.45636 3.25433C8.71738 2.98403 8.89515 2.63553 8.9661 2.25504C9.03328 1.88345 9.00018 1.49918 8.87064 1.14685C8.77235 0.892174 8.62232 0.663891 8.43135 0.47843C8.24038 0.29297 8.01322 0.154944 7.76622 0.0742859C7.68567 0.0495009 7.60373 0.0301281 7.5209 0.0162818C7.41839 -0.00223168 7.31391 -0.00497323 7.21067 0.00814086C7.10853 0.0325636 7.10376 0.109902 7.17153 0.172995C7.10949 0.105832 7.05508 0.097691 7.0484 0.154677V0.170959C7.0188 0.425363 6.98635 0.697066 6.96439 0.976911L6.93671 1.39719C6.93313 1.41868 6.92498 1.43902 6.91291 1.45666C6.90083 1.47429 6.88514 1.48876 6.86703 1.49895C6.85068 1.5087 6.83231 1.51394 6.81357 1.51421L6.69044 1.50709L6.34202 1.48979L5.6452 1.46537C5.56433 1.46234 5.48565 1.49365 5.42641 1.55241C5.36717 1.61117 5.33223 1.69259 5.32924 1.77879V1.80423C5.32132 2.19207 5.42148 2.57369 5.61705 2.90083C5.81262 3.22797 6.09482 3.48592 6.42793 3.64205C6.7062 3.7726 7.01097 3.82581 7.31376 3.79672L7.30517 3.83336C7.28131 3.94733 7.26508 4.10303 7.24408 4.17731C7.20077 4.34678 7.12432 4.50458 7.01976 4.64033C6.91575 4.77617 6.78553 4.88654 6.63794 4.96393C6.53675 5.00972 6.42602 5.06569 6.3153 5.11861C6.3153 5.11861 6.3153 5.11046 6.3153 5.10639C6.24371 4.75807 6.06291 4.44615 5.8027 4.22209C5.54124 3.99831 5.21684 3.87466 4.88155 3.87101H4.11027C3.77488 3.87458 3.45056 3.99946 3.19043 4.22519C2.93031 4.45092 2.74979 4.76413 2.67844 5.11352C2.57058 5.05958 2.46367 5.01176 2.36535 4.96393C2.21746 4.88703 2.08714 4.77658 1.98352 4.64033C1.87926 4.50414 1.80314 4.34601 1.76016 4.17629C1.74011 4.06843 1.7172 3.93512 1.69143 3.79876C1.99556 3.828 2.30168 3.77443 2.58108 3.64306C2.91315 3.48705 3.19464 3.23001 3.39026 2.90417C3.58588 2.57832 3.68692 2.19816 3.68072 1.81136V1.78591C3.68016 1.74155 3.67115 1.69776 3.65423 1.65722C3.63732 1.61668 3.61286 1.58022 3.58233 1.55005C3.5518 1.51989 3.51585 1.49665 3.47665 1.48174C3.43744 1.46683 3.39581 1.46057 3.35427 1.46333L2.65458 1.49182L2.30426 1.50811L2.18494 1.51523C2.15459 1.51337 2.1259 1.49989 2.10415 1.47726C2.0824 1.45463 2.06905 1.42439 2.06657 1.3921L2.03889 0.965717C2.01598 0.68282 1.98352 0.410099 1.95298 0.151625C1.94439 0.0956558 1.88998 0.105832 1.82698 0.174012C1.76846 0.234144 1.72512 0.309046 1.70098 0.391782V0.406028L1.61602 1.08172C1.60457 1.18959 1.59502 1.29034 1.58929 1.40227C1.58707 1.55851 1.6354 1.71079 1.72616 1.83349C1.81691 1.95618 1.94454 2.0418 2.08757 2.07594C2.13284 2.0859 2.17883 2.09169 2.22503 2.09323H2.31189L2.65935 2.11053L2.98199 2.12376C2.92372 2.33245 2.81702 2.52209 2.67175 2.67514C2.52648 2.82819 2.34735 2.9397 2.15092 2.99936C1.9545 3.05901 1.74713 3.06488 1.54802 3.01642C1.3489 2.96796 1.16447 2.86674 1.01179 2.72212C0.836523 2.55795 0.709832 2.34299 0.647147 2.10341C0.584153 1.85447 0.584153 1.59219 0.647147 1.34325C0.720531 1.08932 0.859068 0.86232 1.04711 0.687908C1.14393 0.598584 1.25186 0.523933 1.36784 0.466068C1.42725 0.438547 1.48813 0.414762 1.55016 0.394835L1.64561 0.367359C1.68666 0.357183 1.66852 0.361253 1.68189 0.341919C1.69525 0.322584 1.75825 0.229981 1.82507 0.169942C1.89189 0.109902 1.88616 0.0295108 1.78498 0.00814086H1.75825C1.65883 -1.77741e-05 1.55886 0.00442292 1.46043 0.0213699C1.37851 0.0354833 1.29752 0.0551979 1.21797 0.0803915C1.05665 0.136889 0.903911 0.218134 0.764558 0.321566C0.478427 0.53093 0.256352 0.825358 0.12596 1.16822C-0.002252 1.51993 -0.0333868 1.9034 0.036232 2.27335C0.110663 2.65008 0.289978 2.99409 0.550737 3.26044ZM6.70476 2.95516C6.54015 2.88014 6.39307 2.7674 6.27395 2.62494C6.15484 2.48248 6.06662 2.3138 6.01557 2.13089L6.34393 2.11766L6.69521 2.09629L6.78207 2.0912C6.82965 2.08978 6.87698 2.0833 6.92335 2.07186C7.01917 2.047 7.10834 1.99895 7.18394 1.93143C7.25752 1.86602 7.31602 1.78346 7.35491 1.69013C7.39381 1.59679 7.41206 1.49517 7.40826 1.39312L7.38058 1.07257L7.29563 0.390764C7.27251 0.309126 7.23011 0.23519 7.17249 0.176047C7.24026 0.237104 7.31567 0.321566 7.31663 0.352095V0.358201C7.30135 0.3755 7.40063 0.388729 7.45504 0.408064C7.51649 0.429021 7.57673 0.453826 7.63545 0.48235C7.75072 0.539878 7.85775 0.614571 7.95331 0.70419C8.13925 0.879191 8.27549 1.10621 8.34659 1.35953C8.41008 1.60736 8.41008 1.86881 8.34659 2.11664C8.29884 2.29295 8.21654 2.45646 8.10513 2.59637C7.99373 2.73627 7.85575 2.84939 7.70031 2.92826C7.54487 3.00712 7.3755 3.04993 7.2034 3.05387C7.03129 3.0578 6.86036 3.02277 6.70189 2.95108L6.70476 2.95516Z" fill="#F2F2F2"/>
</svg>
