<svg width="57" height="54" viewBox="0 0 57 54" fill="none" xmlns="http://www.w3.org/2000/svg">
<path d="M3.488 19.5626C4.6997 20.755 6.16304 21.6547 7.76823 22.1942C7.70777 22.4628 7.62918 22.7315 7.57477 23.0001C7.40119 23.7818 7.288 24.5759 7.23622 25.3753C7.19449 27.3132 7.83745 29.2028 9.04988 30.7055C10.2642 32.2215 11.9833 33.2394 13.8863 33.5691C14.8244 33.6974 15.7691 33.7708 16.7156 33.7889C16.7156 34.5765 16.7881 35.3031 16.776 36.103L16.8365 38.5452C16.232 38.3926 15.6274 38.2705 15.0228 38.1728L11.6918 37.666L4.92079 36.7807C4.65746 37.037 4.45135 37.3472 4.31624 37.6904C4.1203 37.9993 4.0001 38.351 3.9656 38.7162C5.42715 40.0994 7.18609 41.1219 9.10451 41.7035C11.0229 42.285 13.0487 42.4099 15.0228 42.0682C15.6274 41.9644 16.2682 41.8362 16.8909 41.6774L16.9453 43.4603C16.9876 44.2724 16.9453 45.0417 17.1146 46.1346C17.1628 46.3964 17.2253 46.6553 17.302 46.91C16.479 47.1213 15.6711 47.3885 14.8838 47.7099L12.2298 48.8822C10.5189 49.6271 8.82015 50.433 6.78885 51.239C6.70422 51.6009 6.68578 51.9754 6.73445 52.3441C6.69907 52.7074 6.74239 53.074 6.8614 53.4187C9.23043 54.1952 11.8005 54.056 14.0737 53.0279C15.1839 52.5263 16.1971 51.8296 17.0662 50.9703C17.5227 50.4924 17.9545 49.9911 18.36 49.4683C18.7894 50.1738 19.3099 50.8185 19.9076 51.3855C21.3647 52.7165 23.2248 53.5105 25.1854 53.6385C27.0776 53.6385 28.5044 53.4798 30.185 53.4004C30.5901 53.4004 30.9105 52.918 30.9105 52.3502C30.9105 51.7824 30.5901 51.3183 30.185 51.2939H30.0701L27.6519 51.1474C26.8916 51.1254 26.1329 51.0643 25.3788 50.9642C24.091 50.7211 22.9194 50.0532 22.0477 49.0653C21.2141 48.1064 20.7187 46.8953 20.6391 45.6217C20.6391 45.0905 20.6694 44.1564 20.6935 43.3626L20.7721 40.9203L20.8991 36.0358C20.9777 34.4361 20.8991 32.5617 21.147 31.6519C21.4379 30.5406 22.0863 29.5584 22.9902 28.8599C23.8942 28.1613 25.0024 27.7861 26.1406 27.7931H30.977C32.1161 27.8 33.2211 28.1863 34.1206 28.8921C35.0288 29.6121 35.6768 30.6142 35.9645 31.7435C36.2184 32.6838 36.1338 34.6315 36.2184 36.2006L36.3817 41.0852L36.4784 43.5275C36.5086 44.3517 36.5691 45.2126 36.5328 45.7805C36.4245 47.128 35.8738 48.4004 34.9681 49.3959C34.0624 50.3913 32.8535 51.0529 31.5332 51.2756C31.2007 51.3305 30.9286 51.819 30.9286 52.3929C30.9152 52.5161 30.926 52.6407 30.9604 52.7596C30.9948 52.8785 31.0522 52.9893 31.1291 53.0858C31.2061 53.1822 31.3012 53.2624 31.4089 53.3216C31.5166 53.3808 31.6349 53.418 31.7568 53.4309H31.8838C33.7929 53.3013 35.6021 52.5222 37.0164 51.2206C37.5844 50.6786 38.0784 50.0626 38.4855 49.3889C38.935 49.976 39.4174 50.5366 39.9304 51.068C40.8072 51.932 41.8312 52.629 42.9531 53.1256C45.2291 54.1453 47.7983 54.278 50.1654 53.4981C50.2861 53.1262 50.3192 52.7311 50.2622 52.3441C50.2908 51.9778 50.2519 51.6092 50.1473 51.2573C48.1341 50.4513 46.4414 49.6454 44.7063 48.9005L42.0463 47.7221C41.2165 47.378 40.364 47.0923 39.4951 46.8673C39.5765 46.5923 39.6431 46.3131 39.6946 46.0308C39.8276 44.9623 39.8155 44.1991 39.8578 43.3932L39.9243 41.653C40.6075 41.824 41.2906 41.9766 41.9677 42.0926C43.2753 42.3129 44.6084 42.3314 45.9215 42.1476C48.5848 41.777 51.0677 40.5776 53.025 38.7162C52.9923 38.3515 52.8742 37.9999 52.6804 37.6904C52.5484 37.3455 52.3418 37.0347 52.0758 36.7807L45.2746 37.666L41.9496 38.1728C41.3088 38.2827 40.674 38.417 40.0332 38.5758L40.1178 36.0236L40.1782 33.7889C41.1733 33.7745 42.1666 33.699 43.1526 33.563C45.0449 33.2197 46.7501 32.1959 47.9528 30.6811C49.1652 29.176 49.808 27.2845 49.7664 25.3447C49.7521 24.9222 49.7035 24.5015 49.6213 24.087C49.5548 23.7206 49.4883 23.3482 49.4158 22.9757C49.3674 22.7193 49.2949 22.4567 49.2344 22.2003C50.8595 21.6559 52.3386 20.7408 53.557 19.526C55.2101 17.9042 56.336 15.8132 56.7853 13.5302C57.2108 11.3007 57.0011 8.99506 56.1807 6.88111C55.5582 5.35304 54.608 3.98334 53.3985 2.87058C52.1891 1.75782 50.7504 0.929665 49.1861 0.445715C48.6759 0.297005 48.157 0.180769 47.6324 0.0976906C46.9831 -0.0133901 46.3215 -0.0298394 45.6676 0.0488451C45.0207 0.195382 44.9905 0.659414 45.4197 1.03797C45.0267 0.634991 44.6822 0.586146 44.6398 0.928065V1.02576C44.4524 2.55218 44.2469 4.1824 44.1078 5.86146L43.9325 8.38311C43.9098 8.51209 43.8582 8.63413 43.7818 8.73994C43.7053 8.84575 43.6059 8.93253 43.4912 8.99368C43.3876 9.05217 43.2713 9.08365 43.1526 9.08527L42.3728 9.04253L40.1662 8.93873L35.7529 8.7922C35.2408 8.77405 34.7424 8.96188 34.3673 9.31445C33.9921 9.66703 33.7708 10.1555 33.7519 10.6727V10.8254C33.7017 13.1524 34.336 15.4422 35.5747 17.405C36.8133 19.3678 38.6005 20.9155 40.7102 21.8523C42.4726 22.6356 44.4028 22.9549 46.3205 22.7803L46.2661 23.0001C46.1149 23.684 46.0122 24.6181 45.8792 25.0639C45.6049 26.0807 45.1207 27.0275 44.4585 27.842C43.7998 28.657 42.975 29.3192 42.0403 29.7836C41.3994 30.0583 40.6982 30.3941 39.9969 30.7116C39.9969 30.7116 39.9969 30.6628 39.9969 30.6384C39.5435 28.5484 38.3984 26.6769 36.7504 25.3325C35.0945 23.9898 33.04 23.248 30.9165 23.2261H26.0317C23.9076 23.2475 21.8536 23.9968 20.2061 25.3512C18.5586 26.7055 17.4153 28.5848 16.9635 30.6811C16.2803 30.3575 15.6032 30.0705 14.9805 29.7836C14.0439 29.3222 13.2186 28.6595 12.5623 27.842C11.902 27.0248 11.4199 26.0761 11.1477 25.0578C11.0207 24.4106 10.8756 23.6107 10.7124 22.7925C12.6386 22.968 14.5773 22.6466 16.3468 21.8584C18.45 20.9223 20.2327 19.3801 21.4716 17.425C22.7106 15.4699 23.3505 13.189 23.3113 10.8681V10.7155C23.3077 10.4493 23.2506 10.1866 23.1435 9.94332C23.0364 9.70005 22.8814 9.4813 22.6881 9.30031C22.4948 9.11933 22.2671 8.97989 22.0188 8.89045C21.7705 8.801 21.5068 8.76342 21.2437 8.77998L16.8123 8.95094L14.5936 9.04863L13.8379 9.09137C13.6458 9.08024 13.4641 8.99934 13.3263 8.86357C13.1885 8.72781 13.104 8.54633 13.0883 8.35259L12.913 5.7943C12.7679 4.09692 12.5623 2.46059 12.3689 0.909748C12.3145 0.573935 11.9699 0.634992 11.5709 1.04407C11.2002 1.40486 10.9258 1.85428 10.7729 2.35069V2.43617L10.2348 6.49035C10.1623 7.13755 10.1018 7.74202 10.0655 8.41364C10.0514 9.35105 10.3575 10.2647 10.9323 11.0009C11.5071 11.7371 12.3154 12.2508 13.2213 12.4556C13.508 12.5154 13.7992 12.5502 14.0918 12.5594H14.642L16.8425 12.6632L18.8859 12.7426C18.5169 13.9947 17.8411 15.1325 16.9211 16.0508C16.0011 16.9691 14.8665 17.6382 13.6225 17.9961C12.3785 18.3541 11.0652 18.3893 9.80411 18.0985C8.54304 17.8078 7.37496 17.2004 6.40799 16.3327C5.29798 15.3477 4.4956 14.0579 4.0986 12.6205C3.69964 11.1268 3.69964 9.55313 4.0986 8.05951C4.56337 6.5359 5.44077 5.17392 6.63167 4.12745C7.24492 3.5915 7.92846 3.1436 8.66297 2.79641C9.03927 2.63128 9.42483 2.48857 9.81766 2.36901L10.4222 2.20415C10.6822 2.1431 10.5673 2.16752 10.6519 2.05151C10.7366 1.9355 11.1356 1.37989 11.5588 1.01965C11.982 0.659414 11.9457 0.177065 11.3049 0.0488451H11.1356C10.506 -0.000106644 9.8728 0.0265375 9.24938 0.128219C8.73054 0.2129 8.21763 0.331187 7.71382 0.482349C6.69213 0.821337 5.72477 1.3088 4.8422 1.9294C3.03003 3.18558 1.62356 4.95215 0.797748 7.00933C-0.0142627 9.11955 -0.21145 11.4204 0.229469 13.6401C0.700866 15.9005 1.83653 17.9646 3.488 19.5626ZM42.4634 17.7309C41.421 17.2808 40.4894 16.6044 39.735 15.7496C38.9807 14.8949 38.4219 13.8828 38.0986 12.7853L40.1782 12.7059L42.403 12.5777L42.9531 12.5472C43.2545 12.5387 43.5542 12.4998 43.8479 12.4312C44.4548 12.282 45.0195 11.9937 45.4983 11.5886C45.9643 11.1961 46.3348 10.7008 46.5811 10.1407C46.8274 9.58072 46.943 8.97101 46.919 8.35869L46.7437 6.4354L46.2056 2.34459C46.0593 1.85476 45.7907 1.41114 45.4258 1.05628C45.855 1.42263 46.3326 1.9294 46.3386 2.11257V2.1492C46.2419 2.253 46.8706 2.33237 47.2152 2.44838C47.6044 2.57412 47.986 2.72295 48.3578 2.8941C49.0879 3.23927 49.7657 3.68742 50.371 4.22514C51.5486 5.27515 52.4114 6.63729 52.8617 8.1572C53.2638 9.64419 53.2638 11.2129 52.8617 12.6998C52.5593 13.7577 52.0381 14.7388 51.3325 15.5782C50.6269 16.4176 49.7531 17.0964 48.7686 17.5695C47.7842 18.0427 46.7115 18.2996 45.6215 18.3232C44.5315 18.3468 43.4489 18.1366 42.4453 17.7065L42.4634 17.7309Z" fill="#0D0D0D"/>
</svg>
